<svg width="48" height="48" viewBox="0 0 48 48" fill="none" xmlns="http://www.w3.org/2000/svg">
<path d="M34.5 34.5C42.5048 32.5731 48 28.5949 48 24C48 19.4051 42.5048 15.4269 34.5 13.5C35.3235 16.6594 35.787 20.2257 35.787 24C35.787 27.7743 35.3235 31.3406 34.5 34.5Z" fill="#404040"/>
<path d="M13.5 34.5C5.49518 32.5731 0 28.5949 0 24C0 19.4051 5.49518 15.4269 13.5 13.5C12.6765 16.6594 12.213 20.2257 12.213 24C12.213 27.7743 12.6765 31.3406 13.5 34.5Z" fill="#404040"/>
<path d="M13.5 13.5C15.4269 5.49518 19.4051 -2.08999e-07 24 0C28.5949 2.08999e-07 32.5731 5.49518 34.5 13.5C31.3406 12.6765 27.7743 12.213 24 12.213C20.2257 12.213 16.6594 12.6765 13.5 13.5Z" fill="#FFA800"/>
<path d="M34.5 34.5C32.5731 42.5048 28.5949 48 24 48C19.4051 48 15.4269 42.5048 13.5 34.5C16.6594 35.3235 20.2257 35.787 24 35.787C27.7743 35.787 31.3406 35.3235 34.5 34.5Z" fill="#FFA800"/>
</svg>
