<svg width="108" height="40" viewBox="0 0 108 40" fill="none" xmlns="http://www.w3.org/2000/svg">
<path d="M0.00390625 34.4341H3.74584V35.0809H0.763084V36.8964H3.42213V37.5357H0.763084V39.6386H0.00390625V34.4341ZM7.96949 37.7361C7.96949 38.5834 7.48393 39.0448 6.7286 39.0448C6.03879 39.0448 5.64572 38.659 5.64572 37.8836V35.6974H4.91737V37.9668C4.91737 39.128 5.60718 39.684 6.64382 39.684C7.21032 39.684 7.7113 39.4533 8.00803 39.0448V39.6386H8.69784V35.6974H7.96949V37.7361ZM11.9195 39.0826C11.5187 39.0826 11.2914 38.8444 11.2914 38.4207V36.2875H12.4436V35.7012H11.2914V34.8388H10.563V35.7012H9.88093V36.2875H10.563V38.451C10.563 39.2453 11.0255 39.684 11.8347 39.684C12.1585 39.684 12.4937 39.5933 12.7134 39.4079L12.486 38.8935C12.3357 39.0108 12.1315 39.0789 11.9195 39.0789V39.0826ZM16.9871 37.7361C16.9871 38.5834 16.5016 39.0448 15.7463 39.0448C15.0564 39.0448 14.6634 38.659 14.6634 37.8836V35.6974H13.935V37.9668C13.935 39.128 14.6248 39.684 15.6615 39.684C16.228 39.684 16.7289 39.4533 17.0257 39.0448V39.6386H17.7155V35.6974H16.9871V37.7361ZM20.1741 36.3593V35.6974H19.4766V39.6386H20.205V37.6756C20.205 36.8132 20.6905 36.3442 21.469 36.3442C21.5229 36.3442 21.573 36.3442 21.6347 36.3518V35.6596C20.9295 35.6596 20.4323 35.8979 20.1741 36.3593ZM26.4981 37.6907C26.4981 37.7513 26.4904 37.8382 26.4826 37.9063H23.2263C23.3188 38.5985 23.8853 39.0599 24.6791 39.0599C25.1493 39.0599 25.5423 38.9049 25.8391 38.5834L26.2399 39.0448C25.8776 39.4609 25.3227 39.684 24.656 39.684C23.3612 39.684 22.4979 38.8444 22.4979 37.668C22.4979 36.4917 23.3534 35.6596 24.5134 35.6596C25.6734 35.6596 26.4981 36.4766 26.4981 37.6907ZM25.8005 37.3919C25.7273 36.73 25.2186 36.261 24.5134 36.261C23.8082 36.261 23.3033 36.7225 23.2263 37.3919H25.8005ZM34.1014 37.668C34.1014 38.8444 33.2228 39.684 32.0166 39.684C30.8103 39.684 29.9278 38.8444 29.9278 37.668C29.9278 36.4917 30.8142 35.6596 32.0166 35.6596C33.2189 35.6596 34.1014 36.4917 34.1014 37.668ZM33.3653 37.668C33.3653 36.8284 32.7911 36.2837 32.0166 36.2837C31.242 36.2837 30.66 36.8246 30.66 37.668C30.66 38.5115 31.242 39.0599 32.0166 39.0599C32.7911 39.0599 33.3653 38.5115 33.3653 37.668ZM35.5889 35.3495V35.6974H34.9068V36.2837H35.5889V39.6386H36.3173V36.2837H37.4695V35.6974H36.3019V35.357C36.3019 34.9031 36.5215 34.6649 36.9531 34.6649C37.1651 34.6649 37.3616 34.7405 37.5119 34.8502L37.7316 34.3093C37.5273 34.1542 37.2229 34.0786 36.9146 34.0786C36.0591 34.0786 35.5889 34.5854 35.5889 35.3495ZM46.3677 38.6893L44.9072 34.4379H44.2096L42.7183 38.6704L41.2847 34.4379H40.5062L42.2789 39.6424H43.0882L44.5372 35.4856L45.9862 39.6424H46.7801L48.5528 34.4379H47.8321L46.3716 38.6893H46.3677ZM53.0693 37.6945C53.0693 37.755 53.0616 37.842 53.0539 37.9101H49.7975C49.89 38.6023 50.4565 39.0637 51.2503 39.0637C51.7205 39.0637 52.1136 38.9087 52.4103 38.5872L52.8111 39.0486C52.4488 39.4647 51.8939 39.6878 51.2272 39.6878C49.9324 39.6878 49.0692 38.8481 49.0692 37.6718C49.0692 36.4955 49.9247 35.6634 51.0846 35.6634C52.2446 35.6634 53.0693 36.4804 53.0693 37.6945ZM52.3718 37.3957C52.2947 36.7338 51.7899 36.2648 51.0846 36.2648C50.3794 36.2648 49.8707 36.7262 49.7975 37.3957H52.3756H52.3718ZM58.6109 37.6718C58.6109 38.8746 57.7554 39.6878 56.58 39.6878C55.9904 39.6878 55.474 39.4647 55.1464 39.0183V39.6424H54.4489V34.124H55.1773V36.295C55.5087 35.8714 56.0097 35.6634 56.58 35.6634C57.7554 35.6634 58.6109 36.4653 58.6109 37.6718ZM57.8748 37.6718C57.8748 36.8321 57.2929 36.2875 56.5183 36.2875C55.7438 36.2875 55.1696 36.8284 55.1696 37.6718C55.1696 38.5153 55.7515 39.0637 56.5183 39.0637C57.2852 39.0637 57.8748 38.5153 57.8748 37.6718ZM61.5243 36.6241L62.9116 34.9447V34.4379H59.4125V35.0847H61.9636L60.6302 36.6922V37.2142H61.0541C61.9636 37.2142 62.3644 37.5697 62.3644 38.1219C62.3644 38.6742 61.9097 39.0448 61.1158 39.0448C60.4645 39.0448 59.8749 38.8141 59.5165 38.4888L59.1697 39.0751C59.6167 39.4684 60.3605 39.7067 61.1158 39.7067C62.4646 39.7067 63.1236 38.9919 63.1236 38.1144C63.1236 37.3125 62.5841 36.7225 61.5243 36.6279V36.6241ZM67.8097 37.3163H70.4687V36.6846H67.8097V35.0847H70.7963V34.4379H67.0543V39.6424H70.9042V38.9957H67.8135V37.3163H67.8097ZM75.4053 34.1278H76.1337V39.6462H75.4361V39.0221C75.1086 39.4684 74.596 39.6916 74.0026 39.6916C72.8272 39.6916 71.9717 38.8822 71.9717 37.6756C71.9717 36.469 72.8272 35.6672 74.0026 35.6672C74.5691 35.6672 75.07 35.8752 75.4053 36.2988V34.1278ZM75.413 37.6756C75.413 36.8359 74.8311 36.2913 74.0642 36.2913C73.2973 36.2913 72.7077 36.8321 72.7077 37.6756C72.7077 38.5191 73.2896 39.0675 74.0642 39.0675C74.8388 39.0675 75.413 38.5191 75.413 37.6756ZM80.9007 37.7437C80.9007 38.5909 80.4151 39.0524 79.6598 39.0524C78.97 39.0524 78.5769 38.6666 78.5769 37.8912V35.705H77.8485V37.9744C77.8485 39.1356 78.5384 39.6916 79.575 39.6916C80.1415 39.6916 80.6425 39.4609 80.9392 39.0524V39.6462H81.629V35.705H80.9007V37.7437ZM85.132 36.295C85.5714 36.295 85.9644 36.4728 86.2226 36.8586L86.7737 36.5106C86.4538 35.9622 85.8565 35.671 85.1359 35.671C83.9027 35.671 83.0164 36.5031 83.0164 37.6794C83.0164 38.8557 83.9027 39.6954 85.1359 39.6954C85.8565 39.6954 86.4538 39.3966 86.7737 38.8481L86.2226 38.5077C85.9644 38.8935 85.5714 39.0713 85.132 39.0713C84.3459 39.0713 83.7524 38.5342 83.7524 37.6794C83.7524 36.8246 84.342 36.295 85.132 36.295ZM91.2748 37.2709V39.65H90.585V39.128C90.3422 39.4836 89.8952 39.6916 89.267 39.6916C88.3576 39.6916 87.7834 39.215 87.7834 38.5304C87.7834 37.8988 88.1996 37.3768 89.3981 37.3768H90.5503V37.2369C90.5503 36.6355 90.1958 36.2837 89.4751 36.2837C88.9973 36.2837 88.5117 36.4463 88.2034 36.7073L87.899 36.1702C88.3152 35.8449 88.9125 35.6634 89.5599 35.6634C90.6582 35.6634 91.2787 36.1854 91.2787 37.2633L91.2748 37.2709ZM90.5465 37.895H89.4251C88.7044 37.895 88.5002 38.1711 88.5002 38.5039C88.5002 38.8973 88.8316 39.1432 89.3865 39.1432C89.9414 39.1432 90.3654 38.8973 90.5465 38.4434V37.895ZM94.4618 39.0902C94.061 39.0902 93.8337 38.8519 93.8337 38.4283V36.295H94.9859V35.7088H93.8337V34.8464H93.1053V35.7088H92.4232V36.295H93.1053V38.4586C93.1053 39.2529 93.5678 39.6916 94.377 39.6916C94.7008 39.6916 95.036 39.6008 95.2557 39.4155L95.0283 38.9011C94.878 39.0183 94.6738 39.0864 94.4618 39.0864V39.0902ZM96.8781 34.0181C96.5968 34.0181 96.3848 34.2261 96.3848 34.4871C96.3848 34.7481 96.5968 34.9485 96.8781 34.9485C97.1594 34.9485 97.3714 34.7405 97.3714 34.472C97.3714 34.2185 97.1594 34.0181 96.8781 34.0181ZM96.512 39.6462H97.2403V35.705H96.512V39.6462ZM102.805 37.6756C102.805 38.8519 101.926 39.6916 100.72 39.6916C99.514 39.6916 98.6315 38.8519 98.6315 37.6756C98.6315 36.4993 99.5179 35.6672 100.72 35.6672C101.923 35.6672 102.805 36.4993 102.805 37.6756ZM102.069 37.6756C102.069 36.8359 101.495 36.2913 100.72 36.2913C99.9456 36.2913 99.3637 36.8321 99.3637 37.6756C99.3637 38.5191 99.9456 39.0675 100.72 39.0675C101.495 39.0675 102.069 38.5191 102.069 37.6756ZM106.331 35.6672C105.695 35.6672 105.179 35.8979 104.882 36.2988V35.705H104.185V39.6462H104.913V37.6151C104.913 36.7603 105.414 36.3064 106.185 36.3064C106.875 36.3064 107.268 36.6846 107.268 37.46V39.6462H107.996V37.3768C107.996 36.2156 107.306 35.6672 106.327 35.6672H106.331Z" fill="white"/>
<path d="M69.3359 20.4399C69.3359 25.1716 65.4167 29.0183 60.5957 29.0183H42.2906C40.7993 29.0183 39.5931 27.8344 39.5931 26.3706C39.5931 24.9068 40.7993 23.7229 42.2906 23.7229H60.5957C62.4416 23.7229 63.9407 22.2516 63.9407 20.4399C63.9407 18.6281 62.4416 17.1568 60.5957 17.1568C60.5957 17.1568 54.3103 17.1568 54.3065 17.1568H47.5586C42.7415 17.1568 38.8185 13.3101 38.8185 8.57839C38.8185 3.84666 42.7415 0 47.5625 0H65.8714C67.3628 0 68.569 1.18388 68.569 2.64765C68.569 4.11142 67.3628 5.2953 65.8714 5.2953H47.5625C45.7166 5.2953 44.2175 6.76664 44.2175 8.57839C44.2175 10.3901 45.7166 11.8615 47.5625 11.8615H60.5995C65.4205 11.8615 69.3397 15.7081 69.3397 20.4399H69.3359ZM107.996 8.64269C107.996 10.9424 107.013 13.0151 105.441 14.494C107.013 15.9691 107.996 18.0456 107.996 20.3453V20.4928C107.996 24.9673 104.285 28.6098 99.7261 28.6098H82.2496C82.0107 28.6098 81.7795 28.5757 81.5636 28.5076C80.6233 28.2202 79.9374 27.3578 79.9374 26.3403V2.64765C79.9374 1.39569 80.974 0.378236 82.2496 0.378236C82.2843 0.378236 82.3151 0.378236 82.3498 0.382018C82.3845 0.382018 82.4153 0.378236 82.45 0.378236H99.73C104.289 0.378236 108 4.02065 108 8.49518V8.64269H107.996ZM103.372 20.3453C103.372 18.3709 101.738 16.7672 99.7261 16.7672H98.6471V16.7596H84.5618V24.0709H99.7261C101.738 24.0709 103.372 22.4672 103.372 20.4928V20.3453ZM103.372 8.49518C103.372 6.52078 101.738 4.91707 99.7261 4.91707H84.5618V12.2208H99.7261C101.738 12.2208 103.372 10.6171 103.372 8.64269V8.49518ZM20.3053 15.4396L24.6407 14.4902C24.7756 14.46 24.9143 14.4448 25.0492 14.4448C25.1841 14.4448 25.3228 14.46 25.4577 14.4902L26.0126 14.6112L18.8794 2.03491C18.4093 1.20657 17.5268 0.688389 16.5595 0.67326C15.5922 0.650566 14.6943 1.15362 14.2011 1.97061L0.377851 24.8236C-0.381327 26.0794 0.038726 27.7058 1.32201 28.4509C2.60143 29.196 4.25852 28.7837 5.0177 27.5242L16.4478 8.62756L20.3053 15.4358V15.4396ZM29.6621 21.0564L25.4538 21.9755C25.319 22.0058 25.1802 22.0209 25.0454 22.0209C24.9105 22.0209 24.7717 22.0058 24.6369 21.9755L23.9201 21.8166L27.2304 27.6528C27.7237 28.5228 28.6447 29.0145 29.5889 29.0145C30.032 29.0145 30.4829 28.9086 30.8991 28.6816C32.2017 27.9705 32.668 26.3593 31.9435 25.0808L29.6621 21.0526V21.0564ZM25.0454 15.9616L24.9721 15.9691L14.6211 18.2347L17.1491 18.787V22.6904C16.8177 22.8341 16.5865 23.1669 16.5865 23.5527C16.5865 23.878 16.7522 24.1655 16.9988 24.3319C16.7484 24.4983 16.5865 24.7858 16.5865 25.1111C16.5865 25.1489 16.5865 25.1867 16.5942 25.2245V28.4849H18.4401V25.1111C18.4401 24.7858 18.2744 24.4983 18.0278 24.3319C18.2783 24.1655 18.4401 23.878 18.4401 23.5527C18.4401 23.1669 18.2089 22.8341 17.8775 22.6904V18.9458L24.976 20.5004L25.0492 20.5079L25.1224 20.5004L35.4735 18.2347L25.1224 15.9691L25.0492 15.9616H25.0454Z" fill="white"/>
</svg>
