<svg width="626" height="89" viewBox="0 0 626 89" fill="none" xmlns="http://www.w3.org/2000/svg">
<mask id="path-1-inside-1_1_532" fill="white">
<path d="M24.8244 20.9692V35.0358H52.3462V53.2614H24.8244V68.7959H56.0158V88H0.849867V1.76506H56.0158V20.9692H24.8244ZM168.531 1.76506V88H144.557V40.4179L128.288 88H108.228L91.8371 40.0509V88H67.8626V1.76506H96.8522L118.503 57.7872L139.664 1.76506H168.531ZM250.31 30.51C250.31 35.729 249.087 40.4994 246.64 44.8214C244.276 49.0618 240.647 52.4867 235.754 55.0962C230.943 57.6241 225.031 58.8881 218.018 58.8881H206.153V88H182.178V1.76506H218.018C224.949 1.76506 230.821 2.98825 235.632 5.43464C240.525 7.88102 244.194 11.2652 246.64 15.5871C249.087 19.9091 250.31 24.8834 250.31 30.51ZM215.694 39.8063C222.462 39.8063 225.846 36.7075 225.846 30.51C225.846 24.231 222.462 21.0915 215.694 21.0915H206.153V39.8063H215.694ZM301.286 88.8562C293.212 88.8562 285.792 86.9807 279.023 83.2296C272.255 79.3969 266.873 74.1372 262.877 67.4504C258.963 60.6821 257.006 53.0575 257.006 44.5767C257.006 36.0959 258.963 28.5122 262.877 21.8254C266.873 15.0571 272.255 9.79735 279.023 6.04623C285.792 2.29511 293.212 0.419555 301.286 0.419555C309.44 0.419555 316.861 2.29511 323.548 6.04623C330.316 9.79735 335.657 15.0571 339.571 21.8254C343.486 28.5122 345.443 36.0959 345.443 44.5767C345.443 53.0575 343.486 60.6821 339.571 67.4504C335.657 74.1372 330.316 79.3969 323.548 83.2296C316.779 86.9807 309.359 88.8562 301.286 88.8562ZM301.286 66.5942C307.401 66.5942 312.213 64.5963 315.719 60.6005C319.307 56.6048 321.101 51.2635 321.101 44.5767C321.101 37.7269 319.307 32.3448 315.719 28.4306C312.213 24.4349 307.401 22.437 301.286 22.437C295.088 22.437 290.236 24.4349 286.73 28.4306C283.223 32.3448 281.47 37.7269 281.47 44.5767C281.47 51.3451 283.223 56.7271 286.73 60.7229C290.236 64.6371 295.088 66.5942 301.286 66.5942ZM477.683 1.76506L456.522 88H427.043L415.178 35.1582L403.068 88H373.589L352.673 1.76506H378.605L388.635 60.7229L402.212 1.76506H428.511L441.721 60.2336L451.751 1.76506H477.683ZM511.831 20.9692V35.0358H539.353V53.2614H511.831V68.7959H543.022V88H487.856V1.76506H543.022V20.9692H511.831ZM598.537 88L581.412 56.197H578.844V88H554.869V1.76506H592.666C599.597 1.76506 605.468 2.98825 610.28 5.43464C615.091 7.79947 618.72 11.1021 621.166 15.3425C623.612 19.5013 624.836 24.1902 624.836 29.4092C624.836 35.2805 623.205 40.4587 619.943 44.9437C616.763 49.3472 612.074 52.4867 605.876 54.3623L625.325 88H598.537ZM578.844 39.8063H590.709C593.97 39.8063 596.417 39.0316 598.048 37.4822C599.679 35.9329 600.494 33.6903 600.494 30.7547C600.494 27.9821 599.638 25.8211 597.925 24.2718C596.295 22.6409 593.889 21.8254 590.709 21.8254H578.844V39.8063Z"/>
</mask>
<path d="M24.8244 20.9692V18.9692H22.8244V20.9692H24.8244ZM24.8244 35.0358H22.8244V37.0358H24.8244V35.0358ZM52.3462 35.0358H54.3462V33.0358H52.3462V35.0358ZM52.3462 53.2614V55.2614H54.3462V53.2614H52.3462ZM24.8244 53.2614V51.2614H22.8244V53.2614H24.8244ZM24.8244 68.7959H22.8244V70.7959H24.8244V68.7959ZM56.0158 68.7959H58.0158V66.7959H56.0158V68.7959ZM56.0158 88V90H58.0158V88H56.0158ZM0.849867 88H-1.15013V90H0.849867V88ZM0.849867 1.76506V-0.234938H-1.15013V1.76506H0.849867ZM56.0158 1.76506H58.0158V-0.234938H56.0158V1.76506ZM56.0158 20.9692V22.9692H58.0158V20.9692H56.0158ZM22.8244 20.9692V35.0358H26.8244V20.9692H22.8244ZM24.8244 37.0358H52.3462V33.0358H24.8244V37.0358ZM50.3462 35.0358V53.2614H54.3462V35.0358H50.3462ZM52.3462 51.2614H24.8244V55.2614H52.3462V51.2614ZM22.8244 53.2614V68.7959H26.8244V53.2614H22.8244ZM24.8244 70.7959H56.0158V66.7959H24.8244V70.7959ZM54.0158 68.7959V88H58.0158V68.7959H54.0158ZM56.0158 86H0.849867V90H56.0158V86ZM2.84987 88V1.76506H-1.15013V88H2.84987ZM0.849867 3.76506H56.0158V-0.234938H0.849867V3.76506ZM54.0158 1.76506V20.9692H58.0158V1.76506H54.0158ZM56.0158 18.9692H24.8244V22.9692H56.0158V18.9692ZM168.531 1.76506H170.531V-0.234938H168.531V1.76506ZM168.531 88V90H170.531V88H168.531ZM144.557 88H142.557V90H144.557V88ZM144.557 40.4179H146.557L142.664 39.7709L144.557 40.4179ZM128.288 88V90H129.718L130.181 88.647L128.288 88ZM108.228 88L106.335 88.6469L106.798 90H108.228V88ZM91.8371 40.0509L93.7296 39.404L89.8371 40.0509H91.8371ZM91.8371 88V90H93.8371V88H91.8371ZM67.8626 88H65.8626V90H67.8626V88ZM67.8626 1.76506V-0.234938H65.8626V1.76506H67.8626ZM96.8522 1.76506L98.7177 1.0441L98.2234 -0.234938H96.8522V1.76506ZM118.503 57.7872L116.637 58.5082L118.524 63.3906L120.374 58.4939L118.503 57.7872ZM139.664 1.76506V-0.234938H138.281L137.793 1.05834L139.664 1.76506ZM166.531 1.76506V88H170.531V1.76506H166.531ZM168.531 86H144.557V90H168.531V86ZM146.557 88V40.4179H142.557V88H146.557ZM142.664 39.7709L126.396 87.353L130.181 88.647L146.449 41.0649L142.664 39.7709ZM128.288 86H108.228V90H128.288V86ZM110.12 87.3531L93.7296 39.404L89.9446 40.6978L106.335 88.6469L110.12 87.3531ZM89.8371 40.0509V88H93.8371V40.0509H89.8371ZM91.8371 86H67.8626V90H91.8371V86ZM69.8626 88V1.76506H65.8626V88H69.8626ZM67.8626 3.76506H96.8522V-0.234938H67.8626V3.76506ZM94.9866 2.48602L116.637 58.5082L120.368 57.0662L98.7177 1.0441L94.9866 2.48602ZM120.374 58.4939L141.535 2.47178L137.793 1.05834L116.632 57.0805L120.374 58.4939ZM139.664 3.76506H168.531V-0.234938H139.664V3.76506ZM246.64 44.8214L244.9 43.8362L244.894 43.8472L246.64 44.8214ZM235.754 55.0962L236.684 56.8667L236.695 56.8609L235.754 55.0962ZM206.153 58.8881V56.8881H204.153V58.8881H206.153ZM206.153 88V90H208.153V88H206.153ZM182.178 88H180.178V90H182.178V88ZM182.178 1.76506V-0.234938H180.178V1.76506H182.178ZM235.632 5.43464L234.725 7.21745L234.737 7.22349L235.632 5.43464ZM246.64 15.5871L244.9 16.5723L244.9 16.5723L246.64 15.5871ZM206.153 21.0915V19.0915H204.153V21.0915H206.153ZM206.153 39.8063H204.153V41.8063H206.153V39.8063ZM248.31 30.51C248.31 35.4019 247.167 39.8302 244.9 43.8362L248.381 45.8066C251.006 41.1687 252.31 36.056 252.31 30.51H248.31ZM244.894 43.8472C242.741 47.7064 239.416 50.8764 234.813 53.3315L236.695 56.8609C241.877 54.097 245.81 50.4171 248.387 45.7955L244.894 43.8472ZM234.824 53.3257C230.371 55.6655 224.798 56.8881 218.018 56.8881V60.8881C225.264 60.8881 231.515 59.5827 236.684 56.8667L234.824 53.3257ZM218.018 56.8881H206.153V60.8881H218.018V56.8881ZM204.153 58.8881V88H208.153V58.8881H204.153ZM206.153 86H182.178V90H206.153V86ZM184.178 88V1.76506H180.178V88H184.178ZM182.178 3.76506H218.018V-0.234938H182.178V3.76506ZM218.018 3.76506C224.721 3.76506 230.263 4.94856 234.725 7.21741L236.538 3.65187C231.378 1.02795 225.177 -0.234938 218.018 -0.234938V3.76506ZM234.737 7.22349C239.312 9.51085 242.669 12.6313 244.9 16.5723L248.381 14.6019C245.719 9.89908 241.737 6.25118 236.526 3.64578L234.737 7.22349ZM244.9 16.5723C247.155 20.5556 248.31 25.182 248.31 30.51H252.31C252.31 24.5848 251.019 19.2625 248.381 14.6019L244.9 16.5723ZM215.694 41.8063C219.345 41.8063 222.456 40.9743 224.659 38.9573C226.895 36.9097 227.846 33.9646 227.846 30.51H223.846C223.846 33.2529 223.105 34.956 221.957 36.0072C220.776 37.0889 218.811 37.8063 215.694 37.8063V41.8063ZM227.846 30.51C227.846 27.0221 226.899 24.0496 224.668 21.9799C222.466 19.9365 219.35 19.0915 215.694 19.0915V23.0915C218.805 23.0915 220.766 23.8162 221.948 24.9123C223.101 25.9822 223.846 27.7189 223.846 30.51H227.846ZM215.694 19.0915H206.153V23.0915H215.694V19.0915ZM204.153 21.0915V39.8063H208.153V21.0915H204.153ZM206.153 41.8063H215.694V37.8063H206.153V41.8063ZM279.023 83.2296L278.038 84.9699L278.046 84.9744L278.054 84.9789L279.023 83.2296ZM262.877 67.4504L261.146 68.4516L261.153 68.464L261.161 68.4763L262.877 67.4504ZM262.877 21.8254L261.155 20.8086L261.151 20.815L262.877 21.8254ZM323.548 6.04623L322.569 7.79054L322.578 7.79554L323.548 6.04623ZM339.571 21.8254L337.84 22.8267L337.845 22.8358L339.571 21.8254ZM339.571 67.4504L341.297 68.4608L341.303 68.4516L339.571 67.4504ZM323.548 83.2296L324.517 84.9789L324.525 84.9744L324.533 84.9699L323.548 83.2296ZM315.719 60.6005L314.231 59.2643L314.223 59.2728L314.216 59.2814L315.719 60.6005ZM315.719 28.4306L314.216 29.7498L314.23 29.7661L314.245 29.7821L315.719 28.4306ZM286.73 28.4306L288.219 29.7651L288.226 29.7575L288.233 29.7498L286.73 28.4306ZM286.73 60.7229L285.226 62.042L285.233 62.0497L285.24 62.0573L286.73 60.7229ZM301.286 86.8562C293.536 86.8562 286.452 85.0597 279.993 81.4802L278.054 84.9789C285.132 88.9016 292.889 90.8562 301.286 90.8562V86.8562ZM280.009 81.4892C273.543 77.8276 268.412 72.8142 264.594 66.4245L261.161 68.4763C265.334 75.4601 270.968 80.9662 278.038 84.9699L280.009 81.4892ZM264.609 66.4491C260.885 60.0107 259.006 52.7367 259.006 44.5767H255.006C255.006 53.3784 257.041 61.3535 261.146 68.4516L264.609 66.4491ZM259.006 44.5767C259.006 36.4165 260.885 29.1875 264.603 22.8357L261.151 20.815C257.041 27.8368 255.006 35.7754 255.006 44.5767H259.006ZM264.6 22.8422C268.417 16.3757 273.541 11.3711 279.993 7.79554L278.054 4.29692C270.969 8.22362 265.329 13.7385 261.155 20.8086L264.6 22.8422ZM279.993 7.79554C286.452 4.21608 293.536 2.41956 301.286 2.41956V-1.58044C292.889 -1.58044 285.132 0.37415 278.054 4.29692L279.993 7.79554ZM301.286 2.41956C309.12 2.41956 316.2 4.21775 322.569 7.79052L324.526 4.30195C317.521 0.372476 309.76 -1.58044 301.286 -1.58044V2.41956ZM322.578 7.79554C329.026 11.369 334.105 16.3687 337.84 22.8266L341.303 20.8241C337.209 13.7455 331.606 8.22567 324.517 4.29692L322.578 7.79554ZM337.845 22.8358C341.563 29.1875 343.443 36.4165 343.443 44.5767H347.443C347.443 35.7754 345.408 27.8368 341.297 20.815L337.845 22.8358ZM343.443 44.5767C343.443 52.7367 341.564 60.0107 337.84 66.4491L341.303 68.4516C345.408 61.3535 347.443 53.3784 347.443 44.5767H343.443ZM337.845 66.44C334.11 72.8212 329.025 77.8296 322.562 81.4892L324.533 84.9699C331.607 80.9642 337.204 75.4531 341.297 68.4608L337.845 66.44ZM322.578 81.4802C316.12 85.0597 309.035 86.8562 301.286 86.8562V90.8562C309.683 90.8562 317.439 88.9016 324.517 84.9789L322.578 81.4802ZM301.286 68.5942C307.881 68.5942 313.277 66.4154 317.222 61.9197L314.216 59.2814C311.148 62.7771 306.922 64.5942 301.286 64.5942V68.5942ZM317.207 61.9368C321.2 57.49 323.101 51.631 323.101 44.5767H319.101C319.101 50.8961 317.414 55.7195 314.231 59.2643L317.207 61.9368ZM323.101 44.5767C323.101 37.3762 321.209 31.4595 317.193 27.0792L314.245 29.7821C317.406 33.2302 319.101 38.0776 319.101 44.5767H323.101ZM317.222 27.1114C313.277 22.6157 307.881 20.437 301.286 20.437V24.437C306.922 24.437 311.148 26.254 314.216 29.7498L317.222 27.1114ZM301.286 20.437C294.618 20.437 289.177 22.6096 285.226 27.1114L288.233 29.7498C291.295 26.2601 295.558 24.437 301.286 24.437V20.437ZM285.24 27.0961C281.315 31.4771 279.47 37.3875 279.47 44.5767H283.47C283.47 38.0663 285.131 33.2125 288.219 29.7651L285.24 27.0961ZM279.47 44.5767C279.47 51.694 281.32 57.5904 285.226 62.042L288.233 59.4037C285.126 55.8638 283.47 50.9962 283.47 44.5767H279.47ZM285.24 62.0573C289.194 66.4717 294.631 68.5942 301.286 68.5942V64.5942C295.545 64.5942 291.278 62.8024 288.219 59.3884L285.24 62.0573ZM477.683 1.76506L479.625 2.2417L480.233 -0.234938H477.683V1.76506ZM456.522 88V90H458.09L458.464 88.4766L456.522 88ZM427.043 88L425.091 88.4382L425.442 90H427.043V88ZM415.178 35.1582L417.129 34.72L413.228 34.7114L415.178 35.1582ZM403.068 88V90H404.662L405.018 88.4468L403.068 88ZM373.589 88L371.646 88.4714L372.017 90H373.589V88ZM352.673 1.76506V-0.234938H350.13L350.729 2.2365L352.673 1.76506ZM378.605 1.76506L380.576 1.42963L380.293 -0.234938H378.605V1.76506ZM388.635 60.7229L386.663 61.0583L390.584 61.1717L388.635 60.7229ZM402.212 1.76506V-0.234938H400.62L400.263 1.31623L402.212 1.76506ZM428.511 1.76506L430.462 1.32429L430.109 -0.234938H428.511V1.76506ZM441.721 60.2336L439.77 60.6743L443.692 60.5717L441.721 60.2336ZM451.751 1.76506V-0.234938H450.065L449.78 1.42691L451.751 1.76506ZM475.741 1.28842L454.579 87.5234L458.464 88.4766L479.625 2.2417L475.741 1.28842ZM456.522 86H427.043V90H456.522V86ZM428.994 87.5618L417.129 34.72L413.227 35.5963L425.091 88.4382L428.994 87.5618ZM413.228 34.7114L401.119 87.5532L405.018 88.4468L417.127 35.6049L413.228 34.7114ZM403.068 86H373.589V90H403.068V86ZM375.533 87.5286L354.617 1.29363L350.729 2.2365L371.646 88.4714L375.533 87.5286ZM352.673 3.76506H378.605V-0.234938H352.673V3.76506ZM376.633 2.10049L386.663 61.0583L390.606 60.3874L380.576 1.42963L376.633 2.10049ZM390.584 61.1717L404.161 2.21389L400.263 1.31623L386.686 60.274L390.584 61.1717ZM402.212 3.76506H428.511V-0.234938H402.212V3.76506ZM426.56 2.20583L439.77 60.6743L443.672 59.7928L430.462 1.32429L426.56 2.20583ZM443.692 60.5717L453.723 2.10322L449.78 1.42691L439.75 59.8954L443.692 60.5717ZM451.751 3.76506H477.683V-0.234938H451.751V3.76506ZM511.831 20.9692V18.9692H509.831V20.9692H511.831ZM511.831 35.0358H509.831V37.0358H511.831V35.0358ZM539.353 35.0358H541.353V33.0358H539.353V35.0358ZM539.353 53.2614V55.2614H541.353V53.2614H539.353ZM511.831 53.2614V51.2614H509.831V53.2614H511.831ZM511.831 68.7959H509.831V70.7959H511.831V68.7959ZM543.022 68.7959H545.022V66.7959H543.022V68.7959ZM543.022 88V90H545.022V88H543.022ZM487.856 88H485.856V90H487.856V88ZM487.856 1.76506V-0.234938H485.856V1.76506H487.856ZM543.022 1.76506H545.022V-0.234938H543.022V1.76506ZM543.022 20.9692V22.9692H545.022V20.9692H543.022ZM509.831 20.9692V35.0358H513.831V20.9692H509.831ZM511.831 37.0358H539.353V33.0358H511.831V37.0358ZM537.353 35.0358V53.2614H541.353V35.0358H537.353ZM539.353 51.2614H511.831V55.2614H539.353V51.2614ZM509.831 53.2614V68.7959H513.831V53.2614H509.831ZM511.831 70.7959H543.022V66.7959H511.831V70.7959ZM541.022 68.7959V88H545.022V68.7959H541.022ZM543.022 86H487.856V90H543.022V86ZM489.856 88V1.76506H485.856V88H489.856ZM487.856 3.76506H543.022V-0.234938H487.856V3.76506ZM541.022 1.76506V20.9692H545.022V1.76506H541.022ZM543.022 18.9692H511.831V22.9692H543.022V18.9692ZM598.537 88L596.776 88.9482L597.342 90H598.537V88ZM581.412 56.197L583.173 55.2488L582.607 54.197H581.412V56.197ZM578.844 56.197V54.197H576.844V56.197H578.844ZM578.844 88V90H580.844V88H578.844ZM554.869 88H552.869V90H554.869V88ZM554.869 1.76506V-0.234938H552.869V1.76506H554.869ZM610.28 5.43464L609.373 7.21741L609.385 7.22355L609.397 7.22953L610.28 5.43464ZM621.166 15.3425L619.434 16.3419L619.438 16.3492L619.442 16.3565L621.166 15.3425ZM619.943 44.9437L618.325 43.7673L618.322 43.7727L619.943 44.9437ZM605.876 54.3623L605.297 52.448L602.882 53.1789L604.145 55.3633L605.876 54.3623ZM625.325 88V90H628.792L627.056 86.9989L625.325 88ZM578.844 39.8063H576.844V41.8063H578.844V39.8063ZM598.048 37.4822L596.67 36.0322L596.67 36.0322L598.048 37.4822ZM597.925 24.2718L596.511 25.686L596.547 25.7213L596.584 25.7548L597.925 24.2718ZM578.844 21.8254V19.8254H576.844V21.8254H578.844ZM600.298 87.0518L583.173 55.2488L579.651 57.1452L596.776 88.9482L600.298 87.0518ZM581.412 54.197H578.844V58.197H581.412V54.197ZM576.844 56.197V88H580.844V56.197H576.844ZM578.844 86H554.869V90H578.844V86ZM556.869 88V1.76506H552.869V88H556.869ZM554.869 3.76506H592.666V-0.234938H554.869V3.76506ZM592.666 3.76506C599.369 3.76506 604.911 4.94856 609.373 7.21741L611.186 3.65187C606.026 1.02795 599.825 -0.234938 592.666 -0.234938V3.76506ZM609.397 7.22953C613.888 9.43675 617.204 12.4777 619.434 16.3419L622.898 14.343C620.235 9.72647 616.294 6.16219 611.162 3.63974L609.397 7.22953ZM619.442 16.3565C621.693 20.1831 622.836 24.5167 622.836 29.4092H626.836C626.836 23.8637 625.532 18.8196 622.89 14.3284L619.442 16.3565ZM622.836 29.4092C622.836 34.8842 621.324 39.6449 618.325 43.7673L621.56 46.12C625.086 41.2724 626.836 35.6768 626.836 29.4092H622.836ZM618.322 43.7727C615.444 47.7564 611.158 50.6742 605.297 52.448L606.456 56.2765C612.989 54.2992 618.081 50.9379 621.564 46.1147L618.322 43.7727ZM604.145 55.3633L623.594 89.0011L627.056 86.9989L607.608 53.3612L604.145 55.3633ZM625.325 86H598.537V90H625.325V86ZM578.844 41.8063H590.709V37.8063H578.844V41.8063ZM590.709 41.8063C594.254 41.8063 597.284 40.9661 599.425 38.9322L596.67 36.0322C595.549 37.0971 593.687 37.8063 590.709 37.8063V41.8063ZM599.425 38.9322C601.565 36.8994 602.494 34.0631 602.494 30.7547H598.494C598.494 33.3176 597.792 34.9663 596.67 36.0322L599.425 38.9322ZM602.494 30.7547C602.494 27.5403 601.482 24.7927 599.267 22.7887L596.584 25.7548C597.794 26.8495 598.494 28.424 598.494 30.7547H602.494ZM599.34 22.8576C597.21 20.7279 594.214 19.8254 590.709 19.8254V23.8254C593.564 23.8254 595.379 24.5538 596.511 25.686L599.34 22.8576ZM590.709 19.8254H578.844V23.8254H590.709V19.8254ZM576.844 21.8254V39.8063H580.844V21.8254H576.844Z" fill="url(#paint0_linear_1_532)" mask="url(#path-1-inside-1_1_532)"/>
<defs>
<linearGradient id="paint0_linear_1_532" x1="312" y1="0.999992" x2="312" y2="102.5" gradientUnits="userSpaceOnUse">
<stop stop-color="white"/>
<stop offset="1" stop-color="#080000" stop-opacity="0"/>
</linearGradient>
</defs>
</svg>
